<?xml version="1.0" encoding="UTF-8"?>
<svg width="136px" height="57px" viewBox="0 0 136 57" version="1.1" xmlns="http://www.w3.org/2000/svg" xmlns:xlink="http://www.w3.org/1999/xlink">
    <title>D5328D2D-3526-4B60-91AC-3DF239F50A67</title>
    <defs>
        <rect id="path-1" x="0" y="0" width="1440" height="96"></rect>
        <filter x="-0.6%" y="-6.8%" width="101.2%" height="117.7%" filterUnits="objectBoundingBox" id="filter-2">
            <feMorphology radius="0.5" operator="dilate" in="SourceAlpha" result="shadowSpreadOuter1"></feMorphology>
            <feOffset dx="0" dy="2" in="shadowSpreadOuter1" result="shadowOffsetOuter1"></feOffset>
            <feGaussianBlur stdDeviation="2" in="shadowOffsetOuter1" result="shadowBlurOuter1"></feGaussianBlur>
            <feColorMatrix values="0 0 0 0 0.149019608   0 0 0 0 0.149019608   0 0 0 0 0.152941176  0 0 0 0.2 0" type="matrix" in="shadowBlurOuter1"></feColorMatrix>
        </filter>
    </defs>
    <g id="workflow-v1" stroke="none" stroke-width="1" fill="none" fill-rule="evenodd">
        <g id="Landingpage-v01-Copy-3" transform="translate(-1174.000000, -20.000000)">
            <rect fill="#FFFFFF" x="0" y="0" width="1440" height="810"></rect>
            <g id="Elevation" fill-rule="nonzero" fill="black" fill-opacity="1">
                <use filter="url(#filter-2)" xlink:href="#path-1"></use>
            </g>
            <rect id="Background" fill="#FFFFFF" x="0" y="0" width="1440" height="96"></rect>
            <g id="logo" transform="translate(1174.625000, 20.000000)">
                <g id="Letters" transform="translate(0.000000, 30.203430)">
                    <g id="logo-type" transform="translate(0.001253, 0.000000)" fill="#332C2B">
                        <polyline id="Fill-1" points="0 14.1008438 0 0.1942646 3.04299691 0.1942646 3.04299691 5.70251475 8.66613702 5.70251475 8.66613702 0.1942646 11.7097603 0.1942646 11.7097603 14.1008438 8.66613702 14.1008438 8.66613702 8.52469531 3.04299691 8.52469531 3.04299691 14.1008438 0 14.1008438"></polyline>
                        <path d="M20.1914447,8.28170738 L23.872353,8.28170738 L22.0369095,3.77244251 L20.1914447,8.28170738 Z M14.7330279,14.1008438 L20.674654,0.0974466442 L23.476516,0.0974466442 L29.4181421,14.1008438 L26.2301511,14.1008438 L24.9643495,10.9781503 L19.1094694,10.9781503 L17.843981,14.1008438 L14.7330279,14.1008438 L14.7330279,14.1008438 Z" id="Fill-2"></path>
                        <path d="M37.5882302,14.324028 C35.6945385,14.324028 34.2229894,13.7987592 33.1729566,12.7475928 C32.1229238,11.6973694 31.598064,10.1633707 31.598064,8.14622511 L31.598064,0.1942646 L34.6416872,0.1942646 L34.6416872,8.05883748 C34.6416872,9.17758782 34.9022382,10.0310318 35.4242795,10.6191695 C35.9456946,11.2079358 36.6800599,11.5012188 37.6267491,11.5012188 C38.5734384,11.5012188 39.3081169,11.2173661 39.8295319,10.6480891 C40.3512601,10.0797551 40.6124374,9.25145867 40.6124374,8.16571444 L40.6124374,0.1942646 L43.6651423,0.1942646 L43.6651423,8.03966249 C43.6651423,10.1020736 43.1290086,11.6656207 42.0564282,12.7284178 C40.9841609,13.7918436 39.4944484,14.324028 37.5882302,14.324028" id="Fill-3"></path>
                        <path d="M52.6926685,14.2941653 C51.623846,14.2941653 50.5803896,14.1068163 49.5629256,13.7318039 C48.5448354,13.3574202 47.630715,12.8044891 46.8186855,12.0742679 L48.6159232,9.9115811 C49.9813103,11.036304 51.3598502,11.5986654 52.7509166,11.5986654 C53.3756752,11.5986654 53.8654608,11.4823581 54.2196473,11.2494292 C54.5735205,11.0168146 54.7507703,10.6968124 54.7507703,10.2894226 L54.7507703,10.2507583 C54.7507703,9.97885071 54.6796825,9.75283737 54.5381332,9.57208956 C54.3965839,9.39102741 54.124446,9.21122263 53.7220326,9.03393261 C53.319306,8.85569955 52.7315006,8.6696079 51.9583032,8.47597198 C51.5208156,8.36595158 51.1425157,8.26158937 50.8234034,8.16068494 C50.5042912,8.0604092 50.1745314,7.94127282 49.8331846,7.80233276 C49.4918378,7.66307837 49.2052944,7.51942315 48.9732413,7.37073843 C48.7415012,7.22173937 48.5175903,7.04444935 48.3021347,6.8369823 C48.0860528,6.63014394 47.9138136,6.40255887 47.7851039,6.15328407 C47.6560811,5.90463795 47.5546166,5.6185849 47.4807103,5.29512491 C47.4064909,4.97197926 47.3695377,4.61645618 47.3695377,4.22824133 L47.3695377,4.18926267 C47.3695377,2.93503006 47.8217439,1.92347102 48.7270958,1.15427122 C49.6318213,0.384757073 50.7964715,0 52.2191673,0 C54.1905232,0 55.9032072,0.588451994 57.3594113,1.76504164 L55.7748107,4.07295539 C54.4542057,3.15538521 53.2563604,2.69612861 52.1812746,2.69612861 C51.6141379,2.69612861 51.1744582,2.80960679 50.8619224,3.0353058 C50.5496997,3.26163349 50.3934317,3.55303039 50.3934317,3.90855347 L50.3934317,3.94753212 C50.3934317,4.39327194 50.5866528,4.73276347 50.9730949,4.96537804 C51.3598502,5.19799261 52.164677,5.46990018 53.3885148,5.78015772 C54.1291434,5.97410798 54.7557809,6.18220372 55.2678011,6.40538797 C55.7795081,6.62888656 56.2320274,6.90110848 56.6247328,7.22488281 C57.0180645,7.5483428 57.3077395,7.93498594 57.4946974,8.38386919 C57.6810288,8.83306678 57.7749775,9.35550654 57.7749775,9.95024541 L57.7749775,9.98890972 C57.7749775,11.3402746 57.3093053,12.3955275 56.3789005,13.155297 C55.4478693,13.9147521 54.2196473,14.2941653 52.6926685,14.2941653" id="Fill-4"></path>
                        <path d="M64.5518071,7.20539348 L66.967227,7.20539348 C67.7141188,7.20539348 68.3031768,7.00829978 68.7350275,6.61379805 C69.1659387,6.21961065 69.3820206,5.7157172 69.3820206,5.101489 L69.3820206,5.06251034 C69.3820206,4.3901285 69.162807,3.87146087 68.7253195,3.50587878 C68.2872056,3.14061104 67.6815499,2.95797717 66.9089788,2.95797717 L64.5518071,2.95797717 L64.5518071,7.20539348 Z M61.5081839,14.1008438 L61.5081839,0.1942646 L67.1695298,0.1942646 C68.7992257,0.1942646 70.0903934,0.635289252 71.0442854,1.5176529 C71.9972379,2.40064523 72.4738708,3.56246071 72.4738708,5.00404235 L72.4738708,5.04270667 C72.4738708,5.82542326 72.3288767,6.53018254 72.0388885,7.15729885 C71.7489003,7.78441515 71.3480527,8.29836762 70.8360326,8.69915623 C70.3243256,9.1002592 69.7315096,9.40580158 69.0582109,9.61546903 C68.3855385,9.82576518 67.6558706,9.93075608 66.8698335,9.93075608 L64.5518071,9.93075608 L64.5518071,14.1008438 L61.5081839,14.1008438 L61.5081839,14.1008438 Z" id="Fill-5"></path>
                        <path d="M81.5032759,14.324028 C79.6098974,14.324028 78.1380351,13.7987592 77.0883155,12.7475928 C76.0382827,11.6973694 75.5134229,10.1633707 75.5134229,8.14622511 L75.5134229,0.1942646 L78.5570461,0.1942646 L78.5570461,8.05883748 C78.5570461,9.17758782 78.8179102,10.0310318 79.3393252,10.6191695 C79.8613666,11.2079358 80.5954188,11.5012188 81.542108,11.5012188 C82.4887973,11.5012188 83.2231626,11.2173661 83.7448908,10.6480891 C84.2663058,10.0797551 84.5271699,9.25145867 84.5271699,8.16571444 L84.5271699,0.1942646 L87.5805012,0.1942646 L87.5805012,8.03966249 C87.5805012,10.1020736 87.0443675,11.6656207 85.9721002,12.7284178 C84.8995198,13.7918436 83.4098073,14.324028 81.5032759,14.324028" id="Fill-6"></path>
                        <polyline id="Fill-7" points="91.9080894 14.1008438 91.9080894 0.1942646 94.7193463 0.1942646 101.212138 8.75730988 101.212138 0.1942646 104.216929 0.1942646 104.216929 14.1008438 101.627704 14.1008438 94.9135068 5.26589092 94.9135068 14.1008438 91.9080894 14.1008438"></polyline>
                        <polyline id="Fill-8" points="108.693582 14.1008438 108.693582 0.1942646 111.737519 0.1942646 111.737519 6.2749352 117.360346 0.1942646 121.041254 0.1942646 115.399324 6.10047427 121.301805 14.1008438 117.640626 14.1008438 113.341222 8.18488943 111.737519 9.85342745 111.737519 14.1008438 108.693582 14.1008438"></polyline>
                        <polyline id="Fill-9" points="127.817144 14.1008438 127.817144 3.01581647 123.604799 3.01581647 123.604799 0.1942646 135.072172 0.1942646 135.072172 3.01581647 130.860141 3.01581647 130.860141 14.1008438 127.817144 14.1008438"></polyline>
                    </g>
                    <g id="slogan" transform="translate(0.000000, 18.604136)" fill="#971B1E">
                        <path d="M2.11760266,5.50919318 L4.13718557,5.50919318 L3.14696675,2.82595268 L3.12723753,2.82595268 L2.11760266,5.50919318 Z M0,8.06732477 L2.5685562,1.42209232 L3.7742306,1.42209232 L6.34309996,8.06732477 L5.08825911,8.06732477 L4.49982737,6.49340429 L1.74493967,6.49340429 L1.14711307,8.06732477 L0,8.06732477 L0,8.06732477 Z" id="Fill-10"></path>
                        <polyline id="Fill-11" points="9.40018917 8.06732477 9.40018917 1.44881156 10.6252796 1.44881156 10.6252796 7.04790713 13.9685991 7.04790713 13.9685991 8.06732477 9.40018917 8.06732477"></polyline>
                        <polyline id="Fill-12" points="17.0554387 8.06732477 17.0554387 1.44881156 18.2808423 1.44881156 18.2808423 7.04790713 21.6238486 7.04790713 21.6238486 8.06732477 17.0554387 8.06732477"></polyline>
                        <polyline id="Fill-13" points="24.7106882 8.06732477 24.7106882 1.44881156 29.396847 1.44881156 29.396847 2.48646115 25.9357786 2.48646115 25.9357786 4.13205206 28.4752107 4.13205206 28.4752107 5.12475045 25.9357786 5.12475045 25.9357786 7.04790713 29.5928866 7.04790713 29.5928866 8.06732477 24.7106882 8.06732477"></polyline>
                        <path d="M32.2578967,6.5113219 L33.2283863,6.04609276 C33.6596106,6.82409419 34.3263329,7.20004963 35.2285532,7.20004963 C36.110731,7.20004963 36.7088708,6.94040148 36.7088708,6.34126179 C36.7088708,5.76884134 36.2579172,5.50039155 35.0616377,5.17850328 C33.6596106,4.80286218 32.5322268,4.45394033 32.5322268,3.19310649 C32.5322268,2.06586886 33.5421748,1.32370264 35.0127844,1.32370264 C36.4442487,1.32370264 37.2872813,1.96779353 37.7285268,2.74548062 L36.8363278,3.30909943 C36.4051035,2.64709094 35.7872345,2.34312028 35.0030764,2.34312028 C34.1991891,2.34312028 33.7382143,2.61188441 33.7382143,3.09471681 C33.7382143,3.71177411 34.2580636,3.9173551 35.4440087,4.23924337 C36.8165986,4.60608283 37.9145452,5.01755915 37.9145452,6.26078972 C37.9145452,7.34276182 36.9049103,8.19243368 35.1793867,8.19243368 C33.7382143,8.19243368 32.7185583,7.51282193 32.2578967,6.5113219" id="Fill-14"></path>
                        <polyline id="Fill-15" points="45.6866042 8.06732477 45.6866042 1.44881156 50.2553272 1.44881156 50.2553272 2.48646115 46.9120078 2.48646115 46.9120078 4.25747532 49.3336909 4.25747532 49.3336909 5.25017372 46.9120078 5.25017372 46.9120078 8.06732477 45.6866042 8.06732477"></polyline>
                        <path d="M56.4593832,1.0819721 L57.5573298,1.0819721 L57.5573298,0 L56.4593832,0 L56.4593832,1.0819721 Z M54.5180908,1.0819721 L55.6160374,1.0819721 L55.6160374,0 L54.5180908,0 L54.5180908,1.0819721 Z M53.2438339,5.65221971 L53.2438339,1.44881156 L54.4689244,1.44881156 L54.4689244,5.55414438 C54.4689244,6.56507473 54.9496283,7.16421442 56.0673041,7.16421442 C57.1749588,7.16421442 57.6553496,6.58267799 57.6553496,5.56294601 L57.6553496,1.44881156 L58.8613371,1.44881156 L58.8613371,5.64341808 C58.8613371,7.14629681 57.9296796,8.17483042 56.0572829,8.17483042 C54.0574293,8.17483042 53.2438339,7.15541278 53.2438339,5.65221971 L53.2438339,5.65221971 Z" id="Fill-16"></path>
                        <path d="M63.6044915,4.48065957 L64.9476441,4.48065957 C65.9673001,4.48065957 66.5162734,4.24867369 66.5162734,3.46124193 C66.5162734,2.70084377 65.9770082,2.4682292 64.9379361,2.4682292 L63.6044915,2.4682292 L63.6044915,4.48065957 Z M62.3985039,8.06732477 L62.3985039,1.44881156 L64.9968105,1.44881156 C66.722021,1.44881156 67.7219478,2.08378647 67.7219478,3.43452269 C67.7219478,4.48977555 67.1241212,5.08891524 66.1144864,5.31272818 L67.8202808,8.06732477 L66.5065654,8.06732477 L64.8790616,5.4557547 L63.6044915,5.4557547 L63.6044915,8.06732477 L62.3985039,8.06732477 L62.3985039,8.06732477 Z" id="Fill-17"></path>
                        <polygon id="Fill-18" points="75.6900464 8.06732477 76.925158 8.06732477 76.925158 1.44881156 75.6900464 1.44881156"></polygon>
                        <polyline id="Fill-19" points="80.6398878 8.06732477 80.6398878 1.44881156 81.8656046 1.44881156 81.8656046 4.08741521 85.1594444 4.08741521 85.1594444 1.44881156 86.3851611 1.44881156 86.3851611 8.06732477 85.1594444 8.06732477 85.1594444 5.12475045 81.8656046 5.12475045 81.8656046 8.06732477 80.6398878 8.06732477"></polyline>
                        <path d="M91.2263353,4.48065957 L92.5691747,4.48065957 C93.5891439,4.48065957 94.1381172,4.24867369 94.1381172,3.46124193 C94.1381172,2.70084377 93.598852,2.4682292 92.5594667,2.4682292 L91.2263353,2.4682292 L91.2263353,4.48065957 Z M90.0206609,8.06732477 L90.0206609,1.44881156 L92.6183412,1.44881156 C94.344178,1.44881156 95.3441048,2.08378647 95.3441048,3.43452269 C95.3441048,4.48977555 94.7456519,5.08891524 93.736017,5.31272818 L95.4418114,8.06732477 L94.1284092,8.06732477 L92.5005922,5.4557547 L91.2263353,5.4557547 L91.2263353,8.06732477 L90.0206609,8.06732477 L90.0206609,8.06732477 Z" id="Fill-20"></path>
                        <polyline id="Fill-21" points="103.2336 8.06732477 103.2336 1.44881156 104.459003 1.44881156 104.459003 4.08741521 107.753156 4.08741521 107.753156 1.44881156 108.978873 1.44881156 108.978873 8.06732477 107.753156 8.06732477 107.753156 5.12475045 104.459003 5.12475045 104.459003 8.06732477 103.2336 8.06732477"></polyline>
                        <path d="M114.153252,5.50919318 L116.172521,5.50919318 L115.182303,2.82595268 L115.162887,2.82595268 L114.153252,5.50919318 Z M112.035336,8.06732477 L114.604205,1.42209232 L115.80988,1.42209232 L118.378749,8.06732477 L117.123595,8.06732477 L116.535476,6.49340429 L113.780589,6.49340429 L113.182449,8.06732477 L112.035336,8.06732477 L112.035336,8.06732477 Z" id="Fill-22"></path>
                        <path d="M121.092612,5.65221971 L121.092612,1.44881156 L122.318016,1.44881156 L122.318016,5.55414438 C122.318016,6.56507473 122.79872,7.16421442 123.916083,7.16421442 C125.02405,7.16421442 125.504441,6.58267799 125.504441,5.56294601 L125.504441,1.44881156 L126.710116,1.44881156 L126.710116,5.64341808 C126.710116,7.14629681 125.778771,8.17483042 123.906688,8.17483042 C121.906521,8.17483042 121.092612,7.15541278 121.092612,5.65221971" id="Fill-23"></path>
                        <path d="M129.717725,6.5113219 L130.688528,6.04609276 C131.119752,6.82409419 131.786788,7.20004963 132.688695,7.20004963 C133.570873,7.20004963 134.168699,6.94040148 134.168699,6.34126179 C134.168699,5.76884134 133.718059,5.50039155 132.521779,5.17850328 C131.119752,4.80286218 129.992368,4.45394033 129.992368,3.19310649 C129.992368,2.06586886 131.002316,1.32370264 132.472613,1.32370264 C133.904077,1.32370264 134.747423,1.96779353 135.188669,2.74548062 L134.296156,3.30909943 C133.864932,2.64709094 133.247689,2.34312028 132.462905,2.34312028 C131.659018,2.34312028 131.198669,2.61188441 131.198669,3.09471681 C131.198669,3.71177411 131.718205,3.9173551 132.904464,4.23924337 C134.27674,4.60608283 135.375,5.01755915 135.375,6.26078972 C135.375,7.34276182 134.365052,8.19243368 132.639215,8.19243368 C131.198669,8.19243368 130.1787,7.51282193 129.717725,6.5113219" id="Fill-25"></path>
                    </g>
                </g>
                <path d="M108.335325,10.6663211 L83.6180601,10.6663211 C83.2228494,8.72241769 81.5098523,7.26008934 79.4564479,7.26008934 C77.4030435,7.26008934 75.6900464,8.72241769 75.2945225,10.6663211 L70.9318602,10.6663211 L70.9318602,0 L63.7977126,0 L63.7977126,10.6663211 L59.0576898,10.6663211 L59.0576898,3.59263773 L51.9235422,3.59263773 L51.9235422,10.6663211 L27.2923972,10.6663211 L27.2923972,12.381382 L51.9235422,12.381382 L51.9235422,19.4553797 L59.0576898,19.4553797 L59.0576898,12.381382 L63.7977126,12.381382 L63.7977126,23.0477031 L70.9318602,23.0477031 L70.9318602,12.381382 L75.2945225,12.381382 C75.6900464,14.3252854 77.4033566,15.7876137 79.4564479,15.7876137 C81.5098523,15.7876137 83.2228494,14.3252854 83.6180601,12.381382 L108.335325,12.381382 L108.335325,10.6663211" id="logo-mark" fill="#971B1E"></path>
            </g>
        </g>
    </g>
</svg>