{
    "asset" : {
        "generator" : "Khronos glTF Blender I/O v1.6.16",
        "version" : "2.0"
    },
    "scene" : 0,
    "scenes" : [
        {
            "name" : "Scene",
            "nodes" : [
                2
            ]
        }
    ],
    "nodes" : [
        {
            "mesh" : 0,
            "name" : "Object_2",
            "translation" : [
                0,
                0,
                -5.836476248077815e-06
            ]
        },
        {
            "children" : [
                0
            ],
            "name" : "Bidet 3957100H.obj.cleaner.materialmerger.gles"
        },
        {
            "children" : [
                1
            ],
            "name" : "Sketchfab_model",
            "rotation" : [
                -0.7071068286895752,
                0,
                0,
                0.7071068286895752
            ]
        }
    ],
    "materials" : [
        {
            "doubleSided" : true,
            "name" : "Material_0",
            "pbrMetallicRoughness" : {
                "baseColorFactor" : [
                    0.5686274766921997,
                    0.5686274766921997,
                    0.5686274766921997,
                    1
                ],
                "metallicFactor" : 0,
                "roughnessFactor" : 0.6000000238418579
            }
        }
    ],
    "meshes" : [
        {
            "name" : "Mesh_0",
            "primitives" : [
                {
                    "attributes" : {
                        "POSITION" : 0,
                        "NORMAL" : 1,
                        "TEXCOORD_0" : 2
                    },
                    "indices" : 3,
                    "material" : 0
                }
            ]
        }
    ],
    "accessors" : [
        {
            "bufferView" : 0,
            "componentType" : 5126,
            "count" : 10737,
            "max" : [
                0.28885650634765625,
                0.1790618896484375,
                0.1291135549545288
            ],
            "min" : [
                -0.2665233612060547,
                -0.1796417236328125,
                -0.17000246047973633
            ],
            "type" : "VEC3"
        },
        {
            "bufferView" : 1,
            "componentType" : 5126,
            "count" : 10737,
            "type" : "VEC3"
        },
        {
            "bufferView" : 2,
            "componentType" : 5126,
            "count" : 10737,
            "type" : "VEC2"
        },
        {
            "bufferView" : 3,
            "componentType" : 5123,
            "count" : 42726,
            "type" : "SCALAR"
        }
    ],
    "bufferViews" : [
        {
            "buffer" : 0,
            "byteLength" : 128844,
            "byteOffset" : 0
        },
        {
            "buffer" : 0,
            "byteLength" : 128844,
            "byteOffset" : 128844
        },
        {
            "buffer" : 0,
            "byteLength" : 85896,
            "byteOffset" : 257688
        },
        {
            "buffer" : 0,
            "byteLength" : 85452,
            "byteOffset" : 343584
        }
    ],
    "buffers" : [
        {
            "byteLength" : 429036,
            "uri" : "data:application/octet-stream;base64,"
        }
    ]
}
