<?xml version="1.0" encoding="UTF-8"?>
<svg width="29px" height="30px" viewBox="0 0 29 30" version="1.1" xmlns="http://www.w3.org/2000/svg" xmlns:xlink="http://www.w3.org/1999/xlink">
    <title>741214BB-D212-44DF-8AEA-43506BFC697E</title>
    <g id="workflow-v1" stroke="none" stroke-width="1" fill="none" fill-rule="evenodd" stroke-linecap="round" stroke-linejoin="round">
        <g id="Landingpage-v01-Copy-11" transform="translate(-1028.000000, -770.000000)" stroke="#971B1E" stroke-width="2">
            <g id="Group-13" transform="translate(1029.000000, 771.000000)">
                <path d="M24.4253,3.9095 L22.7993,22.7645 C22.5873,25.2205 20.7493,27.0945 18.5533,27.0945 L8.4873,27.0945 C6.2913,27.0945 4.4533,25.2205 4.2423,22.7645 L2.6153,3.9095" id="Stroke-1"></path>
                <line x1="0" y1="3.9095" x2="26.932" y2="3.9095" id="Stroke-3"></line>
                <path d="M15.0257,0 L12.0147,0 C10.7757,0 9.6787,0.738 9.2997,1.826 L8.5747,3.91 L18.4657,3.91 L17.7407,1.826 C17.3627,0.738 16.2647,0 15.0257,0 Z" id="Stroke-5"></path>
                <line x1="13.5746" y1="7.8673" x2="13.5746" y2="22.7913" id="Stroke-7"></line>
                <line x1="18.5746" y1="7.8673" x2="18.5746" y2="22.7913" id="Stroke-9"></line>
                <line x1="8.5746" y1="7.8673" x2="8.5746" y2="22.7913" id="Stroke-11"></line>
            </g>
        </g>
    </g>
</svg>