<?xml version="1.0" encoding="UTF-8"?>
<svg width="29px" height="29px" viewBox="0 0 29 29" version="1.1" xmlns="http://www.w3.org/2000/svg" xmlns:xlink="http://www.w3.org/1999/xlink">
    <title>6A09E135-B694-492F-AC65-A2E90DAAD09E</title>
    <g id="workflow-v1" stroke="none" stroke-width="1" fill="none" fill-rule="evenodd" stroke-linecap="round" stroke-linejoin="round">
        <g id="Landingpage-v01-Copy-7" transform="translate(-122.000000, -664.000000)">
            <g id="Group-7" transform="translate(123.000000, 665.000000)">
                <path d="M12.597,2.85505 L2.706,2.85505 C1.211,2.85505 0,4.06705 0,5.56205 L0,24.29305 C0,25.78805 1.211,27.00005 2.706,27.00005 L22.645,27.00005 C24.14,27.00005 25.352,25.78805 25.352,24.29305 L25.352,13.17805" id="Stroke-1" stroke="#000000" stroke-width="2"></path>
                <path d="M24.9009,6.38525 L13.5279,17.75825 L7.5949,19.39725 L9.2009,13.43225 L20.5749,2.05925 L21.9799,0.65325 C22.8509,-0.21775 24.2629,-0.21775 25.1339,0.65325 L26.3069,1.82625 C27.1779,2.69625 27.1779,4.10825 26.3069,4.97925 L24.9009,6.38525 Z" id="Stroke-3" stroke="#000000" stroke-width="2"></path>
                <line x1="19.169" y1="6.52725" x2="23.539" y2="2.15725" id="Stroke-5" stroke="#971B1E" stroke-width="1.5"></line>
            </g>
        </g>
    </g>
</svg>