{
    "asset" : {
        "generator" : "Khronos glTF Blender I/O v1.6.16",
        "version" : "2.0"
    },
    "scene" : 0,
    "scenes" : [
        {
            "name" : "Scene",
            "nodes" : [
                0
            ]
        }
    ],
    "nodes" : [
        {
            "mesh" : 0,
            "name" : "Bidet 3957100H_1.001",
            "rotation" : [
                0.7071068286895752,
                0,
                0,
                0.7071067094802856
            ]
        }
    ],
    "materials" : [
        {
            "doubleSided" : true,
            "name" : "diffuse_0.001",
            "pbrMetallicRoughness" : {
                "baseColorFactor" : [
                    0.800000011920929,
                    0.800000011920929,
                    0.800000011920929,
                    1
                ],
                "metallicFactor" : 0,
                "roughnessFactor" : 0.5
            }
        },
        {
            "doubleSided" : true,
            "name" : "Polierter Edelstahl.001",
            "pbrMetallicRoughness" : {
                "baseColorFactor" : [
                    0.800000011920929,
                    0.800000011920929,
                    0.800000011920929,
                    1
                ],
                "metallicFactor" : 0,
                "roughnessFactor" : 0.5
            }
        },
        {
            "doubleSided" : true,
            "name" : "Porzellan.001",
            "pbrMetallicRoughness" : {
                "baseColorFactor" : [
                    0.800000011920929,
                    0.800000011920929,
                    0.800000011920929,
                    1
                ],
                "metallicFactor" : 0,
                "roughnessFactor" : 0.5
            }
        }
    ],
    "meshes" : [
        {
            "name" : "Bidet 3957100H_1.001",
            "primitives" : [
                {
                    "attributes" : {
                        "POSITION" : 0,
                        "NORMAL" : 1,
                        "TEXCOORD_0" : 2
                    },
                    "indices" : 3,
                    "material" : 0
                },
                {
                    "attributes" : {
                        "POSITION" : 4,
                        "NORMAL" : 5,
                        "TEXCOORD_0" : 6
                    },
                    "indices" : 7,
                    "material" : 1
                },
                {
                    "attributes" : {
                        "POSITION" : 8,
                        "NORMAL" : 9,
                        "TEXCOORD_0" : 10
                    },
                    "indices" : 11,
                    "material" : 2
                }
            ]
        }
    ],
    "accessors" : [
        {
            "bufferView" : 0,
            "componentType" : 5126,
            "count" : 519,
            "max" : [
                0.21661199629306793,
                -0.34342432022094727,
                -0.5382127165794373
            ],
            "min" : [
                0.18418900668621063,
                -0.3758423328399658,
                -0.5672857165336609
            ],
            "type" : "VEC3"
        },
        {
            "bufferView" : 1,
            "componentType" : 5126,
            "count" : 519,
            "type" : "VEC3"
        },
        {
            "bufferView" : 2,
            "componentType" : 5126,
            "count" : 519,
            "type" : "VEC2"
        },
        {
            "bufferView" : 3,
            "componentType" : 5123,
            "count" : 2916,
            "type" : "SCALAR"
        },
        {
            "bufferView" : 4,
            "componentType" : 5126,
            "count" : 17582,
            "max" : [
                0.23206500709056854,
                -0.2057003229856491,
                -0.5466946959495544
            ],
            "min" : [
                0.15855899453163147,
                -0.41384732723236084,
                -0.7009847164154053
            ],
            "type" : "VEC3"
        },
        {
            "bufferView" : 5,
            "componentType" : 5126,
            "count" : 17582,
            "type" : "VEC3"
        },
        {
            "bufferView" : 6,
            "componentType" : 5126,
            "count" : 17582,
            "type" : "VEC2"
        },
        {
            "bufferView" : 7,
            "componentType" : 5123,
            "count" : 91500,
            "type" : "SCALAR"
        },
        {
            "bufferView" : 8,
            "componentType" : 5126,
            "count" : 7123,
            "max" : [
                0.37180599570274353,
                0.07010000199079514,
                -0.26590800285339355
            ],
            "min" : [
                0.013101999647915363,
                -0.48528000712394714,
                -0.5650240182876587
            ],
            "type" : "VEC3"
        },
        {
            "bufferView" : 9,
            "componentType" : 5126,
            "count" : 7123,
            "type" : "VEC3"
        },
        {
            "bufferView" : 10,
            "componentType" : 5126,
            "count" : 7123,
            "type" : "VEC2"
        },
        {
            "bufferView" : 11,
            "componentType" : 5123,
            "count" : 42726,
            "type" : "SCALAR"
        }
    ],
    "bufferViews" : [
        {
            "buffer" : 0,
            "byteLength" : 6228,
            "byteOffset" : 0
        },
        {
            "buffer" : 0,
            "byteLength" : 6228,
            "byteOffset" : 6228
        },
        {
            "buffer" : 0,
            "byteLength" : 4152,
            "byteOffset" : 12456
        },
        {
            "buffer" : 0,
            "byteLength" : 5832,
            "byteOffset" : 16608
        },
        {
            "buffer" : 0,
            "byteLength" : 210984,
            "byteOffset" : 22440
        },
        {
            "buffer" : 0,
            "byteLength" : 210984,
            "byteOffset" : 233424
        },
        {
            "buffer" : 0,
            "byteLength" : 140656,
            "byteOffset" : 444408
        },
        {
            "buffer" : 0,
            "byteLength" : 183000,
            "byteOffset" : 585064
        },
        {
            "buffer" : 0,
            "byteLength" : 85476,
            "byteOffset" : 768064
        },
        {
            "buffer" : 0,
            "byteLength" : 85476,
            "byteOffset" : 853540
        },
        {
            "buffer" : 0,
            "byteLength" : 56984,
            "byteOffset" : 939016
        },
        {
            "buffer" : 0,
            "byteLength" : 85452,
            "byteOffset" : 996000
        }
    ],
    "buffers" : [
        {
            "byteLength" : 1081452,
            "uri" : "data:application/octet-stream;base64,"
        }
    ]
}
